<svg width="34" height="16" viewBox="0 0 34 16" fill="none" xmlns="http://www.w3.org/2000/svg">
<path d="M5.43319 15.331C4.38508 15.331 3.51624 15.1103 2.8267 14.669C2.13715 14.2139 1.5993 13.6209 1.21315 12.89C0.827001 12.1453 0.551181 11.3316 0.38569 10.449C0.233989 9.56635 0.158138 8.69062 0.158138 7.82179C0.158138 6.95296 0.254675 6.07033 0.447749 5.17392C0.654614 4.2775 0.971807 3.45694 1.39933 2.71223C1.82685 1.95372 2.37849 1.34692 3.05425 0.891815C3.73001 0.422921 4.55057 0.188475 5.51594 0.188475C6.52268 0.188475 7.35704 0.416026 8.019 0.871129C8.69476 1.32623 9.22572 1.92614 9.61186 2.67085C10.0118 3.40178 10.2945 4.20855 10.46 5.09117C10.6255 5.9738 10.7082 6.84952 10.7082 7.71836C10.7082 8.5734 10.6117 9.44913 10.4186 10.3455C10.2256 11.242 9.92216 12.0694 9.50843 12.8279C9.0947 13.5726 8.54996 14.1794 7.8742 14.6483C7.21223 15.1034 6.39856 15.331 5.43319 15.331ZM5.55731 14.5242C6.15032 14.5242 6.6399 14.338 7.02605 13.9657C7.4122 13.5933 7.7156 13.0968 7.93626 12.4762C8.1707 11.8557 8.3362 11.173 8.43273 10.4283C8.52927 9.66978 8.57754 8.91128 8.57754 8.15277C8.57754 7.31152 8.52927 6.47027 8.43273 5.62902C8.3362 4.78777 8.1707 4.01548 7.93626 3.31213C7.70181 2.60879 7.38462 2.04336 6.98468 1.61584C6.58474 1.18832 6.08137 0.974561 5.47457 0.974561C4.88155 0.974561 4.37818 1.16074 3.96445 1.5331C3.56451 1.90545 3.24042 2.40193 2.99219 3.02252C2.74395 3.64312 2.56467 4.33267 2.45434 5.09117C2.34401 5.84968 2.28885 6.61508 2.28885 7.38737C2.28885 7.96659 2.31643 8.58029 2.37159 9.22847C2.42676 9.87665 2.52329 10.5179 2.6612 11.1523C2.8129 11.7729 3.01287 12.3383 3.26111 12.8486C3.50935 13.3589 3.81965 13.7657 4.192 14.0691C4.56436 14.3725 5.01946 14.5242 5.55731 14.5242ZM13.3787 15V14.3173C13.8614 14.2898 14.2269 14.1794 14.4751 13.9864C14.7372 13.7933 14.9164 13.5244 15.013 13.1796C15.1233 12.8348 15.1785 12.428 15.1785 11.9591L15.1164 2.19506L12.634 3.78792L12.2203 3.18801L16.2542 0.188475H16.9575L16.9782 12.7452C16.9782 13.0072 16.9713 13.2623 16.9575 13.5106C16.9575 13.7588 16.9437 13.9795 16.9161 14.1725C17.2057 14.1587 17.4954 14.145 17.785 14.1312C18.0746 14.1174 18.3642 14.1036 18.6538 14.0898V15H13.3787Z" fill="white"/>
<path d="M25.0394 15V14.6587C25.2807 14.6449 25.4634 14.5897 25.5876 14.4932C25.7186 14.3966 25.8082 14.2622 25.8565 14.0898C25.9117 13.9174 25.9392 13.714 25.9392 13.4795L25.9082 8.59753L24.667 9.39396L24.4602 9.09401L26.4771 7.59424H26.8288L26.8391 13.8726C26.8391 14.0036 26.8357 14.1312 26.8288 14.2553C26.8288 14.3794 26.8219 14.4897 26.8081 14.5863C26.9529 14.5794 27.0977 14.5725 27.2425 14.5656C27.3873 14.5587 27.5321 14.5518 27.6769 14.5449V15H25.0394ZM31.2583 15.1655C30.7343 15.1655 30.2999 15.0552 29.9551 14.8345C29.6103 14.607 29.3414 14.3105 29.1483 13.945C28.9552 13.5726 28.8173 13.1658 28.7346 12.7245C28.6587 12.2832 28.6208 11.8453 28.6208 11.4109C28.6208 10.9765 28.6691 10.5352 28.7656 10.087C28.869 9.63875 29.0276 9.22847 29.2414 8.85611C29.4552 8.47686 29.731 8.17346 30.0689 7.94591C30.4067 7.71146 30.817 7.59424 31.2997 7.59424C31.8031 7.59424 32.2203 7.70801 32.5512 7.93556C32.8891 8.16312 33.1546 8.46307 33.3477 8.83543C33.5476 9.20089 33.689 9.60427 33.7717 10.0456C33.8545 10.4869 33.8959 10.9248 33.8959 11.3592C33.8959 11.7867 33.8476 12.2246 33.7511 12.6728C33.6545 13.121 33.5028 13.5347 33.296 13.914C33.0891 14.2863 32.8167 14.5897 32.4788 14.8242C32.1479 15.0517 31.741 15.1655 31.2583 15.1655ZM31.3204 14.7621C31.6169 14.7621 31.8617 14.669 32.0548 14.4828C32.2478 14.2967 32.3995 14.0484 32.5099 13.7381C32.6271 13.4278 32.7098 13.0865 32.7581 12.7141C32.8064 12.3349 32.8305 11.9556 32.8305 11.5764C32.8305 11.1558 32.8064 10.7351 32.7581 10.3145C32.7098 9.89389 32.6271 9.50774 32.5099 9.15607C32.3926 8.8044 32.234 8.52168 32.0341 8.30792C31.8341 8.09416 31.5824 7.98728 31.279 7.98728C30.9825 7.98728 30.7308 8.08037 30.524 8.26655C30.324 8.45273 30.1619 8.70096 30.0378 9.01126C29.9137 9.32156 29.8241 9.66633 29.7689 10.0456C29.7137 10.4248 29.6862 10.8075 29.6862 11.1937C29.6862 11.4833 29.7 11.7901 29.7275 12.1142C29.7551 12.4383 29.8034 12.759 29.8723 13.0762C29.9482 13.3865 30.0482 13.6692 30.1723 13.9243C30.2964 14.1794 30.4516 14.3829 30.6377 14.5346C30.8239 14.6863 31.0515 14.7621 31.3204 14.7621Z" fill="#797979"/>
</svg>
